<svg xmlns="http://www.w3.org/2000/svg" xmlns:xlink="http://www.w3.org/1999/xlink" width="500" zoomAndPan="magnify" viewBox="0 0 375 374.999991" height="500" preserveAspectRatio="xMidYMid meet" version="1.0"><defs><g/><clipPath id="id1"><path d="M 106.398438 33.917969 L 268.398438 33.917969 L 268.398438 210.917969 L 106.398438 210.917969 Z M 106.398438 33.917969 " clip-rule="nonzero"/></clipPath><clipPath id="id2"><path d="M 162 255 L 213 255 L 213 267 L 162 267 Z M 162 255 " clip-rule="nonzero"/></clipPath><clipPath id="id3"><path d="M 187.5 234.867188 L 213.484375 260.855469 L 187.5 286.839844 L 161.515625 260.855469 Z M 187.5 234.867188 " clip-rule="nonzero"/></clipPath><clipPath id="id4"><path d="M 187.5 234.867188 L 213.484375 260.855469 L 187.5 286.839844 L 161.515625 260.855469 Z M 187.5 234.867188 " clip-rule="nonzero"/></clipPath></defs><rect x="-37.5" width="450" fill="#ffffff" y="-37.499999" height="449.999989" fill-opacity="1"/><rect x="-37.5" width="450" fill="#000000" y="-37.499999" height="449.999989" fill-opacity="1"/><rect x="-37.5" width="450" fill="#ffffff" y="-37.499999" height="449.999989" fill-opacity="1"/><rect x="-37.5" width="450" fill="#000000" y="-37.499999" height="449.999989" fill-opacity="1"/><g clip-path="url(#id1)"><path fill="#ffffff" d="M 266.898438 68.835938 L 240.546875 53.636719 C 241.042969 52.152344 241.375 50.59375 241.375 48.941406 C 241.375 40.675781 234.644531 33.945312 226.375 33.945312 C 218.105469 33.945312 211.375 40.675781 211.375 48.941406 C 211.375 57.210938 218.105469 63.9375 226.375 63.9375 C 230.839844 63.9375 234.808594 61.941406 237.558594 58.839844 L 262.398438 73.167969 L 262.398438 114.6875 L 226.398438 135.453125 L 190.40625 114.691406 L 190.40625 71.441406 C 190.40625 70.371094 189.832031 69.378906 188.90625 68.84375 L 149.90625 46.351562 C 148.972656 45.8125 147.835938 45.8125 146.90625 46.351562 L 107.90625 68.84375 C 106.976562 69.378906 106.40625 70.371094 106.40625 71.441406 L 106.40625 116.429688 C 106.40625 117.5 106.976562 118.488281 107.90625 119.027344 L 145.398438 140.652344 L 145.398438 185.402344 C 145.398438 186.472656 145.96875 187.460938 146.898438 188 L 185.898438 210.492188 C 186.363281 210.761719 186.878906 210.894531 187.398438 210.894531 C 187.917969 210.894531 188.4375 210.761719 188.898438 210.492188 L 216.121094 194.78125 C 218.808594 197.308594 222.402344 198.890625 226.375 198.890625 C 234.644531 198.890625 241.375 192.160156 241.375 183.894531 C 241.375 175.625 234.644531 168.898438 226.375 168.898438 C 218.105469 168.898438 211.375 175.625 211.375 183.894531 C 211.375 186.019531 211.832031 188.035156 212.632812 189.867188 L 187.398438 204.429688 L 151.398438 183.667969 L 151.398438 140.65625 L 187.410156 119.890625 L 224.898438 141.511719 C 225.363281 141.78125 225.878906 141.914062 226.398438 141.914062 C 226.917969 141.914062 227.433594 141.78125 227.898438 141.511719 L 266.898438 119.019531 C 267.828125 118.484375 268.398438 117.492188 268.398438 116.421875 L 268.398438 71.433594 C 268.398438 70.363281 267.828125 69.371094 266.898438 68.835938 Z M 226.375 57.941406 C 221.414062 57.941406 217.375 53.902344 217.375 48.941406 C 217.375 43.980469 221.414062 39.945312 226.375 39.945312 C 231.339844 39.945312 235.375 43.980469 235.375 48.941406 C 235.375 53.902344 231.339844 57.941406 226.375 57.941406 Z M 226.375 174.894531 C 231.339844 174.894531 235.375 178.933594 235.375 183.894531 C 235.375 188.855469 231.339844 192.890625 226.375 192.890625 C 221.414062 192.890625 217.375 188.855469 217.375 183.894531 C 217.375 178.933594 221.414062 174.894531 226.375 174.894531 Z M 184.40625 114.695312 L 148.40625 135.460938 L 112.40625 114.695312 L 112.40625 73.171875 L 148.40625 52.410156 L 184.40625 73.171875 Z M 184.40625 114.695312 " fill-opacity="1" fill-rule="nonzero"/></g><g fill="#ffffff" fill-opacity="1"><g transform="translate(129.969514, 245.419336)"><g><path d="M 3.578125 -25.0625 L 21.46875 -25.0625 L 21.46875 -21.46875 L 7.15625 -21.46875 L 7.15625 -14.3125 L 21.46875 -14.3125 L 21.46875 0 L 3.578125 0 L 3.578125 -3.578125 L 17.890625 -3.578125 L 17.890625 -10.734375 L 3.578125 -10.734375 Z M 3.578125 -25.0625 "/></g></g></g><g fill="#ffffff" fill-opacity="1"><g transform="translate(151.445924, 245.419336)"><g><path d="M 3.578125 -25.0625 L 21.46875 -25.0625 L 21.46875 -21.46875 L 7.15625 -21.46875 L 7.15625 -14.3125 L 17.890625 -14.3125 L 17.890625 -10.734375 L 7.15625 -10.734375 L 7.15625 -3.578125 L 21.46875 -3.578125 L 21.46875 0 L 3.578125 0 Z M 3.578125 -25.0625 "/></g></g></g><g fill="#ffffff" fill-opacity="1"><g transform="translate(172.922333, 245.419336)"><g><path d="M 3.578125 -25.0625 L 16.890625 -25.0625 L 21.46875 -20.46875 L 21.46875 0 L 17.890625 0 L 17.890625 -18.90625 L 15.3125 -21.46875 L 14.3125 -21.46875 L 14.3125 0 L 10.734375 0 L 10.734375 -21.46875 L 7.15625 -21.46875 L 7.15625 0 L 3.578125 0 Z M 3.578125 -25.0625 "/></g></g></g><g fill="#ffffff" fill-opacity="1"><g transform="translate(194.398742, 245.419336)"><g><path d="M 3.578125 -25.0625 L 21.46875 -25.0625 L 21.46875 -10.734375 L 7.15625 -10.734375 L 7.15625 0 L 3.578125 0 Z M 7.15625 -21.46875 L 7.15625 -14.3125 L 17.890625 -14.3125 L 17.890625 -21.46875 Z M 7.15625 -21.46875 "/></g></g></g><g fill="#ffffff" fill-opacity="1"><g transform="translate(215.875151, 245.419336)"><g><path d="M 3.578125 -25.0625 L 19.6875 -25.0625 L 21.46875 -23.265625 L 21.46875 -15.46875 L 18.546875 -12.53125 L 21.46875 -9.59375 L 21.46875 0 L 17.890625 0 L 17.890625 -8.296875 L 15.46875 -10.734375 L 7.15625 -10.734375 L 7.15625 0 L 3.578125 0 Z M 7.15625 -21.46875 L 7.15625 -14.3125 L 15.3125 -14.3125 L 17.890625 -16.890625 L 17.890625 -21.46875 Z M 7.15625 -21.46875 "/></g></g></g><g fill="#ffffff" fill-opacity="1"><g transform="translate(237.351561, 245.419336)"><g><path d="M 3.578125 -25.0625 L 21.46875 -25.0625 L 21.46875 -21.46875 L 7.15625 -21.46875 L 7.15625 -14.3125 L 17.890625 -14.3125 L 17.890625 -10.734375 L 7.15625 -10.734375 L 7.15625 -3.578125 L 21.46875 -3.578125 L 21.46875 0 L 3.578125 0 Z M 3.578125 -25.0625 "/></g></g></g><g fill="#ffffff" fill-opacity="1"><g transform="translate(97.763779, 305.475331)"><g><path d="M 3.578125 -25.0625 L 21.46875 -25.0625 L 21.46875 -21.46875 L 7.15625 -21.46875 L 7.15625 -3.578125 L 21.46875 -3.578125 L 21.46875 0 L 3.578125 0 Z M 3.578125 -25.0625 "/></g></g></g><g fill="#ffffff" fill-opacity="1"><g transform="translate(119.240188, 305.475331)"><g><path d="M 3.578125 -25.0625 L 21.46875 -25.0625 L 21.46875 0 L 3.578125 0 Z M 7.15625 -21.46875 L 7.15625 -3.578125 L 17.890625 -3.578125 L 17.890625 -21.46875 Z M 7.15625 -21.46875 "/></g></g></g><g fill="#ffffff" fill-opacity="1"><g transform="translate(140.716597, 305.475331)"><g><path d="M 3.578125 -25.0625 L 16.890625 -25.0625 L 21.46875 -20.46875 L 21.46875 0 L 17.890625 0 L 17.890625 -18.90625 L 15.3125 -21.46875 L 7.15625 -21.46875 L 7.15625 0 L 3.578125 0 Z M 3.578125 -25.0625 "/></g></g></g><g fill="#ffffff" fill-opacity="1"><g transform="translate(162.193006, 305.475331)"><g><path d="M 3.578125 -25.0625 L 21.46875 -25.0625 L 21.46875 -21.46875 L 7.15625 -21.46875 L 7.15625 -14.3125 L 17.890625 -14.3125 L 17.890625 -10.734375 L 7.15625 -10.734375 L 7.15625 -3.578125 L 21.46875 -3.578125 L 21.46875 0 L 3.578125 0 Z M 3.578125 -25.0625 "/></g></g></g><g fill="#ffffff" fill-opacity="1"><g transform="translate(183.669416, 305.475331)"><g><path d="M 3.578125 -25.0625 L 21.46875 -25.0625 L 21.46875 -21.46875 L 7.15625 -21.46875 L 7.15625 -3.578125 L 21.46875 -3.578125 L 21.46875 0 L 3.578125 0 Z M 3.578125 -25.0625 "/></g></g></g><g fill="#ffffff" fill-opacity="1"><g transform="translate(205.145825, 305.475331)"><g><path d="M 3.578125 -25.0625 L 21.46875 -25.0625 L 21.46875 -21.46875 L 14.3125 -21.46875 L 14.3125 0 L 10.734375 0 L 10.734375 -21.46875 L 3.578125 -21.46875 Z M 3.578125 -25.0625 "/></g></g></g><g fill="#ffffff" fill-opacity="1"><g transform="translate(226.622234, 305.475331)"><g><path d="M 7.15625 -21.46875 L 7.15625 -14.3125 L 17.890625 -14.3125 L 17.890625 -21.46875 Z M 3.578125 -25.0625 L 21.46875 -25.0625 L 21.46875 0 L 17.890625 0 L 17.890625 -10.734375 L 7.15625 -10.734375 L 7.15625 0 L 3.578125 0 Z M 3.578125 -25.0625 "/></g></g></g><g fill="#ffffff" fill-opacity="1"><g transform="translate(248.098643, 305.475331)"><g><path d="M 7.15625 -21.46875 L 7.15625 -3.578125 L 15.3125 -3.578125 L 17.890625 -6.15625 L 17.890625 -18.90625 L 15.3125 -21.46875 Z M 3.578125 -25.0625 L 16.890625 -25.0625 L 21.46875 -20.46875 L 21.46875 -4.578125 L 16.890625 0 L 3.578125 0 Z M 3.578125 -25.0625 "/></g></g></g><g fill="#ffffff" fill-opacity="1"><g transform="translate(269.575053, 305.475331)"><g><path d="M 3.578125 -25.0625 L 21.46875 -25.0625 L 21.46875 0 L 3.578125 0 Z M 7.15625 -21.46875 L 7.15625 -3.578125 L 17.890625 -3.578125 L 17.890625 -21.46875 Z M 7.15625 -21.46875 "/></g></g></g><g clip-path="url(#id2)"><g clip-path="url(#id3)"><g clip-path="url(#id4)"><path fill="#ffffff" d="M 212.621094 259.988281 L 208.164062 255.53125 C 207.6875 255.054688 206.910156 255.054688 206.433594 255.53125 L 202.335938 259.628906 L 172.664062 259.628906 L 168.566406 255.53125 C 168.089844 255.054688 167.3125 255.054688 166.835938 255.53125 L 162.378906 259.988281 C 161.902344 260.464844 161.902344 261.242188 162.378906 261.71875 L 166.835938 266.175781 C 167.3125 266.652344 168.089844 266.652344 168.566406 266.175781 L 172.664062 262.078125 L 202.335938 262.078125 L 206.433594 266.175781 C 206.910156 266.652344 207.6875 266.652344 208.164062 266.175781 L 212.621094 261.71875 C 213.097656 261.242188 213.097656 260.464844 212.621094 259.988281 Z M 167.699219 263.574219 L 164.976562 260.855469 L 167.699219 258.132812 L 170.421875 260.851562 Z M 207.296875 263.578125 L 204.578125 260.855469 L 207.300781 258.132812 L 210.019531 260.855469 Z M 207.296875 263.578125 " fill-opacity="1" fill-rule="nonzero"/></g></g></g></svg>